<svg xmlns="http://www.w3.org/2000/svg" version="1.1" viewBox="-5.0 -10.0 110.0 135.0">
 <g>
  <path d="m89.711 23.711h-66.527v-2.6836c0-1.3633 1.1211-2.4844 2.4844-2.4844h54.047c3.4375 0 6.2422-2.8047 6.2422-6.2422-0.003906-3.4375-2.8047-6.2383-6.2461-6.2383h-40.895c-0.48438-2.0469-2.3164-3.5625-4.5156-3.5625h-4.9375c-1.2266 0-2.2266 1-2.2266 2.2266v4.8633c0 1.2266 1 2.2109 2.2266 2.2109h4.9375c2.1836 0 4.0156-1.5312 4.5156-3.5625h40.895c2.2422 0 4.0625 1.8164 4.0625 4.0625 0 2.2422-1.8164 4.0625-4.0625 4.0625h-54.043c-2.5742 0-4.668 2.0898-4.668 4.668v2.6836l-10.711-0.003906c-3.7422 0-6.7734 3.0469-6.7734 6.7734v36.5c0 3.2266 2.3164 5.9531 5.4102 6.6055v4c0 2.3477 0.91016 4.5625 2.5898 6.2578 0.24219 0.24219 0.45312 0.51562 0.60547 0.81641-1.832 0.45313-3.1953 2.1055-3.1953 4.0742v4.5312c0 2.3164 1.8945 4.2109 4.2109 4.2109h23.727c2.332 0 4.2109-1.8945 4.2109-4.2109v-4.5312c0-1.8945-1.2578-3.4688-2.9688-4v-0.25781c0-0.91016 0.36328-1.8047 1.0156-2.4531l8.2578-8.2578h6.3047l8.2578 8.2578c0.65234 0.65234 1.0156 1.5469 1.0156 2.4531v0.25781c-1.7109 0.53125-2.9688 2.1211-2.9688 4v4.5312c0 2.3164 1.8945 4.2109 4.2109 4.2109h23.727c2.3164 0 4.2109-1.8945 4.2109-4.2109v-4.5312c0-1.9688-1.3633-3.6211-3.1953-4.0742 0.16797-0.30469 0.36328-0.57422 0.62109-0.83203 1.668-1.6836 2.5742-3.8945 2.5742-6.2422v-4.3047c2.5625-1.0156 4.3047-3.4688 4.3047-6.2891l-0.003906-36.496c0.046875-3.7422-2.9844-6.7891-6.7266-6.7891zm-55.406-14.09-5-0.046875 0.046874-4.9102h4.9375c1.3633 0 2.4688 1.1055 2.4688 2.4688 0.03125 1.3828-1.0898 2.4883-2.4531 2.4883zm-18.305 49.062c-0.74219-0.53125-1.6367-0.86328-2.6211-0.86328-0.10547 0-0.19531 0.03125-0.28906 0.03125v-1.3633c0-0.13672 0.10547-0.24219 0.24219-0.24219h4.9531c0.015625 0 0.03125 0.015625 0.046875 0.015625-1.0586 0.44922-1.9062 1.3281-2.332 2.4219zm22.91 30.074v4.5312c0 1.1211-0.91016 2.0469-2.0469 2.0469l-23.727-0.003907c-1.1211 0-2.0469-0.91016-2.0469-2.0469v-4.5312c0-1.1211 0.91016-2.0469 2.0469-2.0469h23.727c1.1367 0.003907 2.0469 0.92969 2.0469 2.0508zm-1.3047-8.2578c-1.0469 1.0469-1.6523 2.5-1.6523 3.9844v0.046875h-21.543c-0.27344-0.83203-0.72656-1.5898-1.3633-2.2109-1.2578-1.2734-1.9531-2.9375-1.9531-4.7109l-0.003906-15.32c0-0.60547 0.24219-1.1836 0.66797-1.6211 0.18359-0.18359 0.41016-0.33203 0.65234-0.45312 0.015625 0 0.015625-0.015625 0.03125-0.015625 0.28906-0.13672 0.60547-0.21094 0.9375-0.21094 1.2578 0 2.2891 1.0312 2.2891 2.2891v4.6836c0 0.30469 0.12109 0.57422 0.31641 0.77344 0.19531 0.19531 0.46875 0.31641 0.77344 0.31641 0.60547 0 1.0898-0.48438 1.0898-1.0898v-6.6367c0-1.2578 1.0312-2.2891 2.2891-2.2891 1.2578 0 2.2891 1.0312 2.2891 2.2891v6.6367c0 0.60547 0.48438 1.0898 1.0898 1.0898s1.0898-0.48438 1.0898-1.0898v-9.1836c0-1.2578 1.0312-2.2891 2.2891-2.2891 1.2578 0 2.2891 1.0312 2.2891 2.2891v9.1836c0 0.60547 0.48438 1.0898 1.0898 1.0898 0.60547 0 1.0898-0.48438 1.0898-1.0898v-19.609c0-1.2578 1.0312-2.2891 2.2891-2.2891 1.2578 0 2.2891 1.0312 2.2891 2.2891v23.758 0.03125 0.98438c0 0.60547 0.48438 1.0898 1.0898 1.0898s1.0898-0.48438 1.0898-1.0898v-0.48438l5.0742-4.7109c1.1953-1.0625 3.168-0.86328 4.1367 0.42578 0.83203 1.1055 0.71094 2.6953-0.27344 3.6836zm-8.4102-33.137v2.1953h-2.1836c-0.13672 0-0.24219-0.10547-0.24219-0.24219v-4.9531c0-0.13672 0.10547-0.24219 0.24219-0.24219h3.6055c-0.875 0.80469-1.4219 1.9531-1.4219 3.2422zm8.9258 8.8633h21.195c0.13672 0 0.24219 0.10547 0.24219 0.24219v4.9531c0 0.13672-0.10547 0.24219-0.24219 0.24219l-21.195 0.003907zm51.895 32.531v4.5312c0 1.1211-0.91016 2.0469-2.0469 2.0469l-23.742-0.003907c-1.1211 0-2.0469-0.91016-2.0469-2.0469v-4.5312c0-1.1211 0.91016-2.0469 2.0469-2.0469h23.727c1.1367 0.003907 2.0625 0.92969 2.0625 2.0508zm0-11.152c0 1.7734-0.69531 3.4531-1.9375 4.7109-0.65234 0.63672-1.1055 1.3945-1.3789 2.2266l-21.547 0.003906v-0.046875c0-1.4844-0.60547-2.9375-1.6523-3.9844l-9.4531-9.4531c-0.98438-0.98438-1.1055-2.5742-0.28906-3.6836 0.98438-1.2891 2.9688-1.4688 4.1211-0.4375l5.0898 4.7266v0.48438c0 0.60547 0.48438 1.0898 1.0898 1.0898 0.60938 0 1.0938-0.51563 1.0938-1.1055v-0.98438-0.03125-23.758c0-1.2578 1.0312-2.2891 2.2891-2.2891 1.2578 0 2.2891 1.0312 2.2891 2.2891v19.609c0 0.60547 0.48438 1.0898 1.0898 1.0898 0.60547 0 1.0898-0.48438 1.0898-1.0898v-9.1836c0-1.2578 1.0312-2.2891 2.2891-2.2891 1.2578 0 2.2891 1.0312 2.2891 2.2891v9.1836c0 0.60547 0.48438 1.0898 1.0898 1.0898s1.0898-0.48438 1.0898-1.0898v-6.6367c0-1.2578 1.0312-2.2891 2.2891-2.2891 1.2578 0 2.2891 1.0312 2.2891 2.2891v6.6367c0 0.60547 0.48438 1.0898 1.0898 1.0898 0.30469 0 0.57422-0.12109 0.77344-0.31641 0.19531-0.19531 0.31641-0.46875 0.31641-0.77344v-4.6836c0-1.2578 1.0312-2.2891 2.2891-2.2891 0.60547 0 1.1953 0.24219 1.6211 0.66797 0.4375 0.4375 0.68359 1.0312 0.68359 1.6367zm-19.531-33.5h2.5c0.13672 0 0.24219 0.10547 0.24219 0.24219v4.9531c0 0.13672-0.10547 0.24219-0.24219 0.24219h-1.0742v-2.1953c0-1.2734-0.54688-2.4219-1.4258-3.2422zm16.426 13.789c-0.66797 0.12109-1.2734 0.39453-1.8047 0.78906-0.4375-1.1055-1.3047-1.9844-2.3789-2.4531h3.9375c0.13672 0 0.24219 0.10547 0.24219 0.24219zm7.4062 9.1055c0 1.6055-0.83203 3.0469-2.1211 3.8789v-8.5898c0-1.1836-0.45312-2.3047-1.3047-3.168-0.5-0.5-1.1211-0.84766-1.7891-1.0742v-1.5742c0-1.332-1.0898-2.4258-2.4258-2.4258h-4.9531c-1.2422 0-2.2578 0.9375-2.3945 2.1367-0.28906 0.12109-0.5625 0.25781-0.81641 0.42578-0.51562-1.8945-2.2422-3.2891-4.2891-3.2891-0.83203 0-1.6211 0.24219-2.2891 0.65234v-2.2266h1.0742c1.332 0 2.4258-1.0898 2.4258-2.4258v-4.9531c0-1.332-1.0898-2.4258-2.4258-2.4258l-4.9766-0.003906c-0.87891 0-1.668 0.5-2.0898 1.2422-1.7266 0.62109-2.9688 2.2578-2.9688 4.1953v21.316l-3.6211-3.3633c-0.92578-0.81641-2.0742-1.2578-3.3164-1.2578-1.5742 0-3.0312 0.72656-4 2-1.2266 1.6367-1.2734 3.832-0.25781 5.5469h-2.4375c1.0156-1.6953 0.96875-3.9102-0.25781-5.5469-0.96875-1.2734-2.4258-2-4-2-1.2422 0-2.3789 0.4375-3.332 1.2734l-3.6055 3.3477v-4.8164h21.195c1.332 0 2.4258-1.0898 2.4258-2.4258v-4.9531c0-1.332-1.0898-2.4258-2.4258-2.4258l-21.219 0.003907v-6.6836c0-2.3789-1.8789-4.3164-4.2266-4.4375-0.45312-0.60547-1.1523-0.98438-1.9375-0.98438h-4.9531c-1.332 0-2.4258 1.0898-2.4258 2.4258v4.9531c0 1.332 1.0898 2.4258 2.4258 2.4258h2.1836v2.2266c-0.66797-0.41016-1.4531-0.65234-2.2891-0.65234-2.0625 0-3.7734 1.4102-4.2891 3.2891-0.57422-0.37891-1.2422-0.62109-1.9531-0.69531-0.25781-1.0625-1.2109-1.8633-2.3477-1.8633l-4.9766-0.003906c-1.332 0-2.4258 1.0898-2.4258 2.4258v2.0898c-0.25781 0.16797-0.48438 0.34766-0.69531 0.57422-0.83203 0.84766-1.2891 1.9688-1.2891 3.1523v9.0898c-1.8633-0.58984-3.2266-2.3477-3.2266-4.3789v-36.527c0-2.5469 2.0625-4.6055 4.6055-4.6055h79.426c2.5312 0 4.6055 2.0625 4.6055 4.6055v36.5z"/>
  <path d="m18.289 29.816h-4.957c-1.332 0-2.4258 1.0898-2.4258 2.4258v4.9531c0 1.332 1.0898 2.4258 2.4258 2.4258h4.9531c1.332 0 2.4258-1.0898 2.4258-2.4258v-4.9531c0-1.332-1.0742-2.4258-2.4219-2.4258zm0.25781 7.3789c0 0.13672-0.10547 0.24219-0.24219 0.24219h-4.9727c-0.13672 0-0.24219-0.10547-0.24219-0.24219v-4.9531c0-0.13672 0.10547-0.24219 0.24219-0.24219h4.9531c0.13672 0 0.24219 0.10547 0.24219 0.24219l0.003906 4.9531z"/>
  <path d="m31.969 29.816h-4.9531c-1.332 0-2.4258 1.0898-2.4258 2.4258v4.9531c0 1.332 1.0898 2.4258 2.4258 2.4258h4.9531c1.332 0 2.4258-1.0898 2.4258-2.4258v-4.9531c0-1.332-1.0898-2.4258-2.4258-2.4258zm0.24219 7.3789c0 0.13672-0.10547 0.24219-0.24219 0.24219h-4.9531c-0.13672 0-0.24219-0.10547-0.24219-0.24219v-4.9531c0-0.13672 0.10547-0.24219 0.24219-0.24219h4.9531c0.13672 0 0.24219 0.10547 0.24219 0.24219z"/>
  <path d="m45.637 29.816h-4.9531c-1.332 0-2.4258 1.0898-2.4258 2.4258v4.9531c0 1.332 1.0898 2.4258 2.4258 2.4258h4.9531c1.332 0 2.4258-1.0898 2.4258-2.4258v-4.9531c0-1.332-1.0781-2.4258-2.4258-2.4258zm0.25781 7.3789c0 0.13672-0.10547 0.24219-0.24219 0.24219h-4.9531c-0.13672 0-0.24219-0.10547-0.24219-0.24219v-4.9531c0-0.13672 0.10547-0.24219 0.24219-0.24219h4.9531c0.13672 0 0.24219 0.10547 0.24219 0.24219z"/>
  <path d="m59.316 29.816h-4.9531c-1.332 0-2.4258 1.0898-2.4258 2.4258v4.9531c0 1.332 1.0898 2.4258 2.4258 2.4258h4.9531c1.332 0 2.4258-1.0898 2.4258-2.4258v-4.9531c0-1.332-1.0898-2.4258-2.4258-2.4258zm0.24609 7.3789c0 0.13672-0.10547 0.24219-0.24219 0.24219h-4.9531c-0.13672 0-0.24219-0.10547-0.24219-0.24219v-4.9531c0-0.13672 0.10547-0.24219 0.24219-0.24219h4.9531c0.13672 0 0.24219 0.10547 0.24219 0.24219z"/>
  <path d="m72.984 29.816h-4.9531c-1.332 0-2.4258 1.0898-2.4258 2.4258v4.9531c0 1.332 1.0898 2.4258 2.4258 2.4258h4.9531c1.332 0 2.4258-1.0898 2.4258-2.4258v-4.9531c0-1.332-1.0781-2.4258-2.4258-2.4258zm0.25781 7.3789c0 0.13672-0.10547 0.24219-0.24219 0.24219h-4.9688c-0.13672 0-0.24219-0.10547-0.24219-0.24219v-4.9531c0-0.13672 0.10547-0.24219 0.24219-0.24219h4.9531c0.13672 0 0.24219 0.10547 0.24219 0.24219v4.9531z"/>
  <path d="m86.668 29.816h-4.9531c-1.332 0-2.4258 1.0898-2.4258 2.4258v4.9531c0 1.332 1.0898 2.4258 2.4258 2.4258h4.9531c1.332 0 2.4258-1.0898 2.4258-2.4258v-4.9531c-0.003906-1.332-1.0938-2.4258-2.4258-2.4258zm0.24219 7.3789c0 0.13672-0.10547 0.24219-0.24219 0.24219h-4.9531c-0.13672 0-0.24219-0.10547-0.24219-0.24219v-4.9531c0-0.13672 0.10547-0.24219 0.24219-0.24219h4.9531c0.13672 0 0.24219 0.10547 0.24219 0.24219z"/>
  <path d="m18.289 41.938h-4.957c-1.332 0-2.4258 1.0898-2.4258 2.4258v4.9531c0 1.332 1.0898 2.4258 2.4258 2.4258h4.9531c1.332 0 2.4258-1.0898 2.4258-2.4258v-4.9531c0-1.332-1.0742-2.4258-2.4219-2.4258zm0.25781 7.3789c0 0.13672-0.10547 0.24219-0.24219 0.24219l-4.9727 0.003906c-0.13672 0-0.24219-0.10547-0.24219-0.24219v-4.9531c0-0.13672 0.10547-0.24219 0.24219-0.24219h4.9531c0.13672 0 0.24219 0.10547 0.24219 0.24219l0.003906 4.9492z"/>
  <path d="m45.637 41.938h-4.9531c-1.332 0-2.4258 1.0898-2.4258 2.4258v4.9531c0 1.332 1.0898 2.4258 2.4258 2.4258h4.9531c1.332 0 2.4258-1.0898 2.4258-2.4258v-4.9531c0-1.332-1.0781-2.4258-2.4258-2.4258zm0.25781 7.3789c0 0.13672-0.10547 0.24219-0.24219 0.24219h-4.9531c-0.13672 0-0.24219-0.10547-0.24219-0.24219v-4.9531c0-0.13672 0.10547-0.24219 0.24219-0.24219h4.9531c0.13672 0 0.24219 0.10547 0.24219 0.24219z"/>
  <path d="m59.316 41.938h-4.9531c-1.332 0-2.4258 1.0898-2.4258 2.4258v4.9531c0 1.332 1.0898 2.4258 2.4258 2.4258h4.9531c1.332 0 2.4258-1.0898 2.4258-2.4258v-4.9531c0-1.332-1.0898-2.4258-2.4258-2.4258zm0.24609 7.3789c0 0.13672-0.10547 0.24219-0.24219 0.24219h-4.9531c-0.13672 0-0.24219-0.10547-0.24219-0.24219v-4.9531c0-0.13672 0.10547-0.24219 0.24219-0.24219h4.9531c0.13672 0 0.24219 0.10547 0.24219 0.24219z"/>
  <path d="m86.668 41.938h-4.9531c-1.332 0-2.4258 1.0898-2.4258 2.4258v4.9531c0 1.332 1.0898 2.4258 2.4258 2.4258h4.9531c1.332 0 2.4258-1.0898 2.4258-2.4258v-4.9531c-0.003906-1.332-1.0938-2.4258-2.4258-2.4258zm0.24219 7.3789c0 0.13672-0.10547 0.24219-0.24219 0.24219h-4.9531c-0.13672 0-0.24219-0.10547-0.24219-0.24219v-4.9531c0-0.13672 0.10547-0.24219 0.24219-0.24219h4.9531c0.13672 0 0.24219 0.10547 0.24219 0.24219z"/>
 </g>
<text x="0.0" y="117.5" font-size="5.0" font-weight="bold" font-family="Arbeit Regular, Helvetica, Arial-Unicode, Arial, Sans-serif" fill="#000000">Created by Candy Design</text><text x="0.0" y="122.5" font-size="5.0" font-weight="bold" font-family="Arbeit Regular, Helvetica, Arial-Unicode, Arial, Sans-serif" fill="#000000">from Noun Project</text></svg>